# xmcd CD database file
#
# Track frame offsets:
#	150
#	13340
#	35779
#	66727
#	85038
#	110748
#	140387
#	162627
#	187090
#	214052
#	225840
#	257134
#	281801
#	304859
#	327674
#	342776
#
# Disc length: 4738 seconds
#
# Revision: 0
# Processed by: cddbd v1.5.2PL0 Copyright (c) Steve Scherf et al.
# Submitted via: CDex 1.51
#
DISCID=fd128010
DTITLE=Guitares Jazz - CD1 Guitares Electriques
DYEAR=2009
DGENRE=Jazz
TTITLE0=Georges Benson - Ain't That Peculiar
TTITLE1=Grant Green - Brazil
TTITLE2=Phil Upchurch - Take Five
TTITLE3=Wes Montgomery - Sunny
TTITLE4=Nicola - Mingo - Blues For Grant Green
TTITLE5=John Scofield - A Go Go
TTITLE6=Ernest Ranglin - Congo Man
TTITLE7=Eddie Roberts - Strada Statale 163
TTITLE8=Biréli Lagrène and WDR Big Band - Caravan
TTITLE9=Pablo Bobrowicky - One For Charlie
TTITLE10=Ron Jackson - One For Melvin
TTITLE11=Karl Ratzer - Finger Snappin' Good
TTITLE12=Ronny Jordan - So What
TTITLE13=Rodolphe Raffalli - Comme Un P'tit Coqu'licot
TTITLE14=Barney Kessel - A Slow Boat To China
TTITLE15=Charlie Christian - Solo Flight
EXTD=YEAR: 2009
EXTT0=
EXTT1=
EXTT2=
EXTT3=
EXTT4=
EXTT5=
EXTT6=
EXTT7=
EXTT8=
EXTT9=
EXTT10=
EXTT11=
EXTT12=
EXTT13=
EXTT14=
EXTT15=
PLAYORDER=
